<?xml version="1.0" encoding="utf-8"?>
<!-- Generator: Adobe Illustrator 29.5.0, SVG Export Plug-In . SVG Version: 9.03 Build 0)  -->
<svg version="1.0" id="Ebene_1" xmlns="http://www.w3.org/2000/svg" xmlns:xlink="http://www.w3.org/1999/xlink" x="0px" y="0px"
	 viewBox="0 0 1257.219 1195" enable-background="new 0 0 1257.219 1195" xml:space="preserve">
<g transform="translate(0.000000,1240.000000) scale(0.100000,-0.100000)">
	<path fill="#CA16D8" d="M3938.185,12308c-1-335,199-780,543-1208c303-378,703-751,1220-1138c126-95,223-173,217-175
		c-15-5-171,89-372,224c-609,410-1126,898-1480,1397c-50,70-92,126-94,125c-6-7,28-152,48-202c177-451,763-978,1687-1517
		c107-62,188-115,181-117c-20-7-351,162-535,273c-402,242-801,532-1189,863c-123,105-138,105-86,0c125-252,487-535,1167-913
		c78-44,140-81,138-83c-6-6-193,81-345,161c-309,161-573,312-783,450c-76,49-140,88-142,85c-8-8,53-123,98-184c25-34,76-92,113-130
		c44-46,62-70,53-72c-14-3-978,390-1504,613c-1191,504-2087,964-2778,1427c-49,33-91,57-94,54c-9-8,35-123,74-196
		c98-181,277-368,533-557c622-459,1754-929,3175-1318c154-42,285-81,290-87c12-11-12-8-195,29c-684,136-1631,417-2290,681
		c-369,148-778,342-1063,507c-93,53-170,95-173,93c-7-8,57-101,109-155c392-416,1523-823,3257-1173c278-57,367-79,318-80
		c-34,0-258,31-428,61c-882,153-1908,420-2849,743c-41,14-77,24-79,21c-9-8,49-64,113-110c245-175,819-361,1616-524
		c215-44,497-96,884-163c137-24,239-44,227-46c-83-12-1714,228-2362,348c-212,39-216,39-165-5c98-84,347-189,620-260
		c398-105,1055-197,1785-250c179-13,384-29,467-37c85-8-221-12-507-7c-669,13-1672,10-1668-3c11-32,285-118,487-153
		c376-65,1097-73,1702-20c288,26,326,28,306,15c-33-21-627-127-1062-189c-229-33-608-76-750-86c-49-3-116-8-148-11l-57-6l22-39
		c109-194,583-239,1348-129c113,16,300,47,415,69c116,21,228,42,250,45l40,5l-32-14c-18-8-172-53-342-100
		c-510-141-1108-326-1251-387l-45-20l44-39c69-62,154-84,321-83c266,2,591,81,1072,260c125,47,233,84,240,82c6-2-83-52-198-112
		c-371-190-646-368-785-507c-33-33-57-65-52-69c11-11,121,6,207,31c193,57,566,232,947,446c294,165,296,160,14-40
		c-299-212-504-378-647-524c-71-72-158-185-158-205c0-14,66-9,131,12c171,53,460,240,839,544c52,42,99,76,104,76s-79-89-185-198
		c-207-212-303-320-393-445c-59-84-133-223-123-233c9-9,130,59,227,129c117,83,285,218,475,381c149,129,195,164,195,152
		c0-3-57-67-127-143c-266-289-410-501-436-641c-9-45,9-49,77-17c103,49,302,207,526,420c58,54,124,117,147,139c68,64,59,36-18-55
		c-206-243-314-388-373-504c-20-38-36-81-36-94c0-20,3-22,28-17c76,19,243,140,450,329c186,169,212,191,217,185c3-3-38-63-91-134
		s-121-169-152-219c-63-103-158-293-150-301c10-9,100,42,184,103c109,81,205,165,362,316c73,71,136,126,139,123s-37-63-90-133
		c-128-173-202-284-242-368s-50-115-36-115c6,0,61,34,122,75s113,75,115,75c12,0-2-43-60-192c-400-1023-626-2420-716-4423
		c-25-550-31-846-35-1575l-4-775l34,390c139,1595,267,2477,455,3125c159,549,343,834,681,1061c1212,812,2161,1658,2776,2479
		c207,276,352,505,610,959c184,324,274,460,365,554c195,200,416,272,804,265l169-3l149-99c476-317,1056-798,1621-1346
		c94-90,190-182,215-205l44-40l-49,60c-372,452-1248,1367-1825,1905c-91,85-175,173-202,213c-319,459-711,791-1106,936
		c-150,56-260,74-442,75c-221,0-367-32-570-126c-369-171-790-584-1125-1103c-47-73-65-90-152-150c-54-37-153-110-220-161
		c-68-52-125-94-127-94c-3,0-55,57-117,128c-147,168-503,545-605,641c-308,290-920,880-1024,987c-459,473-727,835-972,1309l-97,190
		L3938.185,12308z M9320.185,10299c60-20,121-73,148-130c22-45,20-67-4-49c-60,44-73,50-117,50c-105,0-179-114-132-205
		c28-54,75-80,144-80c72,0,71-15-3-55c-104-57-252-25-319,68c-40,55-63,136-54,190C9011.185,10252,9168.185,10351,9320.185,10299z"
		/>
</g>
</svg>
